<svg width="18" height="20" viewBox="0 0 18 20" fill="none" xmlns="http://www.w3.org/2000/svg">
<path d="M16.7201 1.93002H11.5801V1.27991C11.5801 0.568849 11.0113 0 10.3002 0H7.72009C7.00903 0 6.44018 0.568849 6.44018 1.27991V1.93002H1.27991C0.568849 1.93002 0 2.49887 0 3.20993C0 3.92099 0.568849 4.48984 1.27991 4.48984H16.7201C17.4311 4.48984 18 3.92099 18 3.20993C18 2.49887 17.4311 1.93002 16.7201 1.93002Z" fill="white"/>
<path d="M2.17833 18.1421C2.23928 18.8126 2.78781 19.3002 3.45824 19.3002H13.9819C14.6524 19.3002 15.2009 18.7923 15.2618 18.1421L16.4402 5.79H1L2.17833 18.1421Z" fill="white"/>
</svg>
